<svg width="100" height="100" viewBox="0 0 100 100" fill="none" xmlns="http://www.w3.org/2000/svg">
<g filter="url(#filter0_d_40_67)">
<path d="M50 8.57617C50 8.57617 21.875 39.4941 21.875 61.3691C21.875 78.627 32.7422 89.4941 50 89.4941C67.2578 89.4941 78.125 78.627 78.125 61.3691C78.125 39.4941 50 8.57617 50 8.57617ZM53.125 79.3379V74.6504C56.2319 74.6468 59.2105 73.411 61.4074 71.2141C63.6043 69.0171 64.8401 66.0385 64.8438 62.9316H69.5312C69.5266 67.2814 67.7966 71.4517 64.7208 74.5275C61.6451 77.6032 57.4748 79.3332 53.125 79.3379Z" fill="white"/>
</g>
<defs>
<filter id="filter0_d_40_67" x="-2" y="0" width="108" height="108" filterUnits="userSpaceOnUse" color-interpolation-filters="sRGB">
<feFlood flood-opacity="0" result="BackgroundImageFix"/>
<feColorMatrix in="SourceAlpha" type="matrix" values="0 0 0 0 0 0 0 0 0 0 0 0 0 0 0 0 0 0 127 0" result="hardAlpha"/>
<feOffset dx="2" dy="4"/>
<feGaussianBlur stdDeviation="2"/>
<feComposite in2="hardAlpha" operator="out"/>
<feColorMatrix type="matrix" values="0 0 0 0 0 0 0 0 0 0 0 0 0 0 0 0 0 0 0.25 0"/>
<feBlend mode="normal" in2="BackgroundImageFix" result="effect1_dropShadow_40_67"/>
<feBlend mode="normal" in="SourceGraphic" in2="effect1_dropShadow_40_67" result="shape"/>
</filter>
</defs>
</svg>
