<svg width="17" height="19" viewBox="0 0 17 19" fill="none" xmlns="http://www.w3.org/2000/svg">
<path d="M0.849701 4.25008H2.54977M2.54977 4.25008H16.1503M2.54977 4.25008V16.1505C2.54977 16.6014 2.72888 17.0339 3.04771 17.3527C3.36653 17.6715 3.79895 17.8506 4.24983 17.8506H12.7502C13.2011 17.8506 13.6335 17.6715 13.9523 17.3527C14.2711 17.0339 14.4502 16.6014 14.4502 16.1505V4.25008H2.54977ZM5.09987 4.25008V2.55002C5.09987 2.09913 5.27898 1.66671 5.59781 1.34789C5.91663 1.02906 6.34905 0.84995 6.79993 0.84995H10.2001C10.651 0.84995 11.0834 1.02906 11.4022 1.34789C11.721 1.66671 11.9001 2.09913 11.9001 2.55002V4.25008M6.79993 8.50025V13.6004M10.2001 8.50025V13.6004" stroke="white" stroke-width="1.66667" stroke-linecap="round" stroke-linejoin="round"/>
</svg>
