<svg width="217" height="209" viewBox="0 0 217 209" fill="none" xmlns="http://www.w3.org/2000/svg">
<path d="M108.5 104.5C105.938 104.5 103.792 103.664 102.062 101.992C100.332 100.32 99.4644 98.2533 99.4583 95.7918V26.1251C99.4583 23.6578 100.326 21.591 102.062 19.9248C103.798 18.2586 105.944 17.4226 108.5 17.4168C111.056 17.411 113.205 18.247 114.947 19.9248C116.689 21.6026 117.554 23.6694 117.542 26.1251V95.7918C117.542 98.2591 116.674 100.329 114.938 102.001C113.202 103.673 111.056 104.506 108.5 104.5ZM108.5 182.875C97.1979 182.875 86.6131 180.808 76.7457 176.675C66.8782 172.541 58.2886 166.953 50.9769 159.911C43.6652 152.869 37.8635 144.596 33.5717 135.092C29.2799 125.589 27.131 115.391 27.125 104.5C27.125 95.6466 28.6319 87.0457 31.6458 78.6973C34.6597 70.3489 39.0299 62.6943 44.7562 55.7334C46.4139 53.7015 48.5236 52.7233 51.0854 52.7987C53.6472 52.8742 55.9076 53.8524 57.8667 55.7334C59.5243 57.33 60.2778 59.2893 60.1271 61.6116C59.9764 63.9338 59.1476 66.1109 57.6406 68.1428C53.5719 73.3678 50.4826 79.1008 48.3729 85.3418C46.2632 91.5828 45.2083 97.9689 45.2083 104.5C45.2083 121.481 51.3506 135.888 63.6353 147.72C75.9199 159.551 90.8748 165.464 108.5 165.458C126.125 165.453 141.083 159.54 153.374 147.72C165.664 135.899 171.804 121.493 171.792 104.5C171.792 97.8237 170.776 91.3273 168.745 85.0109C166.713 78.6944 163.51 72.9266 159.133 67.7074C157.626 65.8206 156.798 63.7538 156.647 61.5071C156.496 59.2603 157.25 57.3358 158.907 55.7334C160.716 53.9918 162.901 53.0861 165.462 53.0164C168.024 52.9468 170.134 53.8524 171.792 55.7334C177.669 62.7001 182.153 70.3199 185.246 78.5928C188.338 86.8657 189.881 95.5015 189.875 104.5C189.875 115.386 187.729 125.583 183.437 135.092C179.146 144.602 173.344 152.875 166.032 159.911C158.72 166.948 150.131 172.535 140.263 176.675C130.396 180.814 119.808 182.881 108.5 182.875Z" fill="#5A6ACF"/>
</svg>
