<svg width="19" height="19" viewBox="0 0 19 19" fill="none" xmlns="http://www.w3.org/2000/svg">
<path d="M13.9264 1.59142C14.155 1.36281 14.4264 1.18146 14.7251 1.05774C15.0238 0.934015 15.3439 0.870336 15.6672 0.870336C15.9905 0.870336 16.3107 0.934015 16.6094 1.05774C16.9081 1.18146 17.1795 1.36281 17.4081 1.59142C17.6367 1.82003 17.818 2.09143 17.9418 2.39012C18.0655 2.68882 18.1292 3.00895 18.1292 3.33226C18.1292 3.65556 18.0655 3.9757 17.9418 4.2744C17.818 4.57309 17.6367 4.84449 17.4081 5.0731L5.6574 16.8238L0.870081 18.1294L2.17571 13.3421L13.9264 1.59142Z" stroke="white" stroke-width="1.66667" stroke-linecap="round" stroke-linejoin="round"/>
</svg>
