<svg width="50" height="50" viewBox="0 0 50 50" fill="none" xmlns="http://www.w3.org/2000/svg">
<path d="M29.1667 16.6666V12.4999C29.1667 11.3948 28.7277 10.335 27.9463 9.55364C27.1649 8.77224 26.1051 8.33325 25 8.33325H10.4167C9.3116 8.33325 8.25179 8.77224 7.47039 9.55364C6.68899 10.335 6.25 11.3948 6.25 12.4999V37.4999C6.25 38.605 6.68899 39.6648 7.47039 40.4462C8.25179 41.2276 9.3116 41.6666 10.4167 41.6666H25C26.1051 41.6666 27.1649 41.2276 27.9463 40.4462C28.7277 39.6648 29.1667 38.605 29.1667 37.4999V33.3333" stroke="white" stroke-width="2" stroke-linecap="round" stroke-linejoin="round"/>
<path d="M18.75 25H43.75M43.75 25L37.5 18.75M43.75 25L37.5 31.25" stroke="white" stroke-width="2" stroke-linecap="round" stroke-linejoin="round"/>
</svg>
