<svg width="24" height="24" viewBox="0 0 24 24" fill="none" xmlns="http://www.w3.org/2000/svg">
<path d="M11.5651 13.873L8.88808 11.196C8.85141 11.1587 8.82042 11.1157 8.79508 11.067C8.76975 11.0183 8.75742 10.966 8.75808 10.91C8.75808 10.798 8.79475 10.7017 8.86808 10.621C8.94275 10.5403 9.04075 10.5 9.16208 10.5H14.8381C14.9594 10.5 15.0571 10.5413 15.1311 10.624C15.2051 10.7067 15.2421 10.803 15.2421 10.913C15.2421 10.9397 15.1987 11.034 15.1121 11.196L12.4351 13.873C12.3731 13.9343 12.3064 13.9817 12.2351 14.015C12.1637 14.0483 12.0854 14.065 12.0001 14.065C11.9147 14.065 11.8364 14.0483 11.7651 14.015C11.6937 13.9817 11.6271 13.9343 11.5651 13.873Z" fill="white"/>
</svg>
