<svg width="100" height="100" viewBox="0 0 100 100" fill="none" xmlns="http://www.w3.org/2000/svg">
<g filter="url(#filter0_d_47_22)">
<path fill-rule="evenodd" clip-rule="evenodd" d="M30.1875 8.33325H69.8125C74.6417 8.33325 77.0542 8.33325 79.0042 9.01242C80.8427 9.66404 82.5063 10.7308 83.8656 12.1298C85.2249 13.5289 86.2433 15.2225 86.8417 17.0791C87.5 19.0874 87.5 21.5708 87.5 26.5416V84.8916C87.5 88.4666 83.3958 90.3666 80.8 87.9916C80.0717 87.3186 79.1166 86.9449 78.125 86.9449C77.1334 86.9449 76.1783 87.3186 75.45 87.9916L73.4375 89.8332C72.1616 91.0131 70.4878 91.6684 68.75 91.6684C67.0122 91.6684 65.3384 91.0131 64.0625 89.8332C62.7866 88.6534 61.1128 87.9981 59.375 87.9981C57.6372 87.9981 55.9634 88.6534 54.6875 89.8332C53.4116 91.0131 51.7378 91.6684 50 91.6684C48.2622 91.6684 46.5884 91.0131 45.3125 89.8332C44.0366 88.6534 42.3628 87.9981 40.625 87.9981C38.8872 87.9981 37.2134 88.6534 35.9375 89.8332C34.6616 91.0131 32.9878 91.6684 31.25 91.6684C29.5122 91.6684 27.8384 91.0131 26.5625 89.8332L24.55 87.9916C23.8217 87.3186 22.8666 86.9449 21.875 86.9449C20.8834 86.9449 19.9283 87.3186 19.2 87.9916C16.6042 90.3666 12.5 88.4666 12.5 84.8916V26.5416C12.5 21.5708 12.5 19.0833 13.1583 17.0833C14.4083 13.2791 17.3042 10.2958 20.9958 9.01242C22.9458 8.33325 25.3583 8.33325 30.1875 8.33325ZM29.1667 28.1249C28.3379 28.1249 27.543 28.4542 26.957 29.0402C26.3709 29.6263 26.0417 30.4211 26.0417 31.2499C26.0417 32.0787 26.3709 32.8736 26.957 33.4596C27.543 34.0457 28.3379 34.3749 29.1667 34.3749H31.25C32.0788 34.3749 32.8737 34.0457 33.4597 33.4596C34.0458 32.8736 34.375 32.0787 34.375 31.2499C34.375 30.4211 34.0458 29.6263 33.4597 29.0402C32.8737 28.4542 32.0788 28.1249 31.25 28.1249H29.1667ZM43.75 28.1249C42.9212 28.1249 42.1263 28.4542 41.5403 29.0402C40.9542 29.6263 40.625 30.4211 40.625 31.2499C40.625 32.0787 40.9542 32.8736 41.5403 33.4596C42.1263 34.0457 42.9212 34.3749 43.75 34.3749H70.8333C71.6621 34.3749 72.457 34.0457 73.043 33.4596C73.6291 32.8736 73.9583 32.0787 73.9583 31.2499C73.9583 30.4211 73.6291 29.6263 73.043 29.0402C72.457 28.4542 71.6621 28.1249 70.8333 28.1249H43.75ZM29.1667 42.7083C28.3379 42.7083 27.543 43.0375 26.957 43.6235C26.3709 44.2096 26.0417 45.0044 26.0417 45.8333C26.0417 46.6621 26.3709 47.4569 26.957 48.043C27.543 48.629 28.3379 48.9583 29.1667 48.9583H31.25C32.0788 48.9583 32.8737 48.629 33.4597 48.043C34.0458 47.4569 34.375 46.6621 34.375 45.8333C34.375 45.0044 34.0458 44.2096 33.4597 43.6235C32.8737 43.0375 32.0788 42.7083 31.25 42.7083H29.1667ZM43.75 42.7083C42.9212 42.7083 42.1263 43.0375 41.5403 43.6235C40.9542 44.2096 40.625 45.0044 40.625 45.8333C40.625 46.6621 40.9542 47.4569 41.5403 48.043C42.1263 48.629 42.9212 48.9583 43.75 48.9583H70.8333C71.6621 48.9583 72.457 48.629 73.043 48.043C73.6291 47.4569 73.9583 46.6621 73.9583 45.8333C73.9583 45.0044 73.6291 44.2096 73.043 43.6235C72.457 43.0375 71.6621 42.7083 70.8333 42.7083H43.75ZM29.1667 57.2916C28.3379 57.2916 27.543 57.6208 26.957 58.2069C26.3709 58.7929 26.0417 59.5878 26.0417 60.4166C26.0417 61.2454 26.3709 62.0402 26.957 62.6263C27.543 63.2123 28.3379 63.5416 29.1667 63.5416H31.25C32.0788 63.5416 32.8737 63.2123 33.4597 62.6263C34.0458 62.0402 34.375 61.2454 34.375 60.4166C34.375 59.5878 34.0458 58.7929 33.4597 58.2069C32.8737 57.6208 32.0788 57.2916 31.25 57.2916H29.1667ZM43.75 57.2916C42.9212 57.2916 42.1263 57.6208 41.5403 58.2069C40.9542 58.7929 40.625 59.5878 40.625 60.4166C40.625 61.2454 40.9542 62.0402 41.5403 62.6263C42.1263 63.2123 42.9212 63.5416 43.75 63.5416H70.8333C71.6621 63.5416 72.457 63.2123 73.043 62.6263C73.6291 62.0402 73.9583 61.2454 73.9583 60.4166C73.9583 59.5878 73.6291 58.7929 73.043 58.2069C72.457 57.6208 71.6621 57.2916 70.8333 57.2916H43.75Z" fill="white"/>
</g>
<defs>
<filter id="filter0_d_47_22" x="-2" y="0" width="108" height="108" filterUnits="userSpaceOnUse" color-interpolation-filters="sRGB">
<feFlood flood-opacity="0" result="BackgroundImageFix"/>
<feColorMatrix in="SourceAlpha" type="matrix" values="0 0 0 0 0 0 0 0 0 0 0 0 0 0 0 0 0 0 127 0" result="hardAlpha"/>
<feOffset dx="2" dy="4"/>
<feGaussianBlur stdDeviation="2"/>
<feComposite in2="hardAlpha" operator="out"/>
<feColorMatrix type="matrix" values="0 0 0 0 0 0 0 0 0 0 0 0 0 0 0 0 0 0 0.25 0"/>
<feBlend mode="normal" in2="BackgroundImageFix" result="effect1_dropShadow_47_22"/>
<feBlend mode="normal" in="SourceGraphic" in2="effect1_dropShadow_47_22" result="shape"/>
</filter>
</defs>
</svg>
