<svg width="71" height="72" viewBox="0 0 71 72" fill="none" xmlns="http://www.w3.org/2000/svg">
<path d="M35.5 36C34.6618 36 33.9597 35.712 33.3937 35.136C32.8276 34.56 32.5436 33.848 32.5417 33V9.00001C32.5417 8.15001 32.8257 7.43801 33.3937 6.86401C33.9617 6.29001 34.6638 6.00201 35.5 6.00001C36.3362 5.99801 37.0393 6.28601 37.6093 6.86401C38.1793 7.44201 38.4623 8.15401 38.4583 9.00001V33C38.4583 33.85 38.1743 34.563 37.6063 35.139C37.0383 35.715 36.3362 36.002 35.5 36ZM35.5 63C31.8021 63 28.3389 62.288 25.1103 60.864C21.8818 59.44 19.0714 57.515 16.6791 55.089C14.2868 52.663 12.3885 49.813 10.9843 46.539C9.58007 43.265 8.87697 39.752 8.875 36C8.875 32.95 9.36806 29.987 10.3542 27.111C11.3403 24.235 12.7701 21.598 14.6437 19.2C15.1861 18.5 15.8764 18.163 16.7146 18.189C17.5528 18.215 18.2924 18.552 18.9333 19.2C19.4757 19.75 19.7222 20.425 19.6729 21.225C19.6236 22.025 19.3524 22.775 18.8594 23.475C17.5281 25.275 16.5174 27.25 15.8271 29.4C15.1368 31.55 14.7917 33.75 14.7917 36C14.7917 41.85 16.8014 46.813 20.8208 50.889C24.8401 54.965 29.7332 57.002 35.5 57C41.2668 56.998 46.1608 54.961 50.1822 50.889C54.2036 46.817 56.2123 41.854 56.2083 36C56.2083 33.7 55.876 31.462 55.2114 29.286C54.5467 27.11 53.4985 25.123 52.0667 23.325C51.5736 22.675 51.3024 21.963 51.2531 21.189C51.2038 20.415 51.4503 19.752 51.9927 19.2C52.5844 18.6 53.2993 18.288 54.1375 18.264C54.9757 18.24 55.666 18.552 56.2083 19.2C58.1312 21.6 59.5986 24.225 60.6103 27.075C61.6221 29.925 62.127 32.9 62.125 36C62.125 39.75 61.4229 43.263 60.0187 46.539C58.6144 49.815 56.7162 52.665 54.3239 55.089C51.9316 57.513 49.1212 59.438 45.8926 60.864C42.6641 62.29 39.1999 63.002 35.5 63Z" fill="#F2F2F7"/>
</svg>
