<svg width="30" height="30" viewBox="0 0 30 30" fill="none" xmlns="http://www.w3.org/2000/svg">
<path d="M19 25V26C19.2652 26 19.5196 25.8946 19.7071 25.7071C19.8946 25.5196 20 25.2652 20 25H19ZM11 25H10C10 25.2652 10.1054 25.5196 10.2929 25.7071C10.4804 25.8946 10.7348 26 11 26V25ZM12 30H18V28H12V30ZM7.16 12.8L7.14 12.94L9.12 13.22L9.142 13.08L7.16 12.8ZM15 6C13.0935 5.99968 11.2509 6.68727 9.81061 7.93647C8.37036 9.18567 7.42919 10.9126 7.16 12.8L9.142 13.08C9.34373 11.6697 10.0454 10.3795 11.1219 9.44634C12.1984 8.51315 13.5754 7.99961 15 8V6ZM22.84 12.8C22.5708 10.9126 21.6296 9.18567 20.1894 7.93647C18.7491 6.68727 16.9065 5.99968 15 6V8C16.4245 8.00002 17.8013 8.51371 18.8777 9.44682C19.9541 10.3799 20.6579 11.6699 20.86 13.08L22.84 12.8ZM22.86 12.94L22.84 12.8L20.86 13.08L20.878 13.22L22.86 12.94ZM21.28 18.918C22.54 17.29 23.176 15.17 22.86 12.94L20.88 13.222C20.9945 14.0085 20.9491 14.8099 20.7463 15.5784C20.5435 16.3469 20.1877 17.0664 19.7 17.694L21.28 18.918ZM18 21.8V25H20V21.802L18 21.8ZM19 24H11V26H19V24ZM12 25V21.802H10V25H12ZM7.14 12.94C6.98797 13.9915 7.04953 15.0628 7.32101 16.09C7.59248 17.1171 8.0683 18.079 8.72 18.918L10.302 17.694C9.81435 17.0664 9.45647 16.3469 9.2537 15.5784C9.05093 14.8099 9.00546 14.0065 9.12 13.22L7.14 12.94ZM12 21.8C12 20.154 11.124 18.754 10.3 17.692L8.72 18.918C9.486 19.908 10 20.852 10 21.8H12ZM19.7 17.692C18.874 18.756 18 20.154 18 21.8H20C20 20.852 20.514 19.908 21.28 18.918L19.7 17.692ZM14 0V4H16V0H14ZM0 16H4V14H0V16ZM26 16H30V14H26V16ZM6.708 7.292L3.708 4.292L2.292 5.708L5.292 8.708L6.708 7.292ZM24.708 8.708L27.708 5.708L26.292 4.292L23.292 7.292L24.708 8.708Z" fill="black"/>
</svg>
