<svg width="100" height="100" viewBox="0 0 100 100" fill="none" xmlns="http://www.w3.org/2000/svg">
<g filter="url(#filter0_d_40_79)">
<path d="M50 49.9999C48.8194 49.9999 47.8306 49.5999 47.0333 48.7999C46.2361 47.9999 45.8361 47.011 45.8333 45.8333V12.4999C45.8333 11.3194 46.2333 10.3305 47.0333 9.53325C47.8333 8.73603 48.8222 8.33603 50 8.33325C51.1806 8.33325 52.1708 8.73325 52.9708 9.53325C53.7708 10.3333 54.1694 11.3221 54.1667 12.4999V45.8333C54.1667 47.0138 53.7667 48.0041 52.9667 48.8041C52.1667 49.6041 51.1778 50.0027 50 49.9999ZM50 87.4999C44.7917 87.4999 39.9139 86.511 35.3667 84.5332C30.8194 82.5555 26.8611 79.8819 23.4917 76.5124C20.1222 73.143 17.4486 69.1846 15.4708 64.6374C13.4931 60.0902 12.5028 55.211 12.5 49.9999C12.5 45.7638 13.1944 41.6485 14.5833 37.6541C15.9722 33.6596 17.9861 29.9971 20.625 26.6666C21.3889 25.6944 22.3611 25.2263 23.5417 25.2624C24.7222 25.2985 25.7639 25.7666 26.6667 26.6666C27.4306 27.4305 27.7778 28.368 27.7083 29.4791C27.6389 30.5902 27.2569 31.6319 26.5625 32.6041C24.6875 35.1041 23.2639 37.8471 22.2917 40.8333C21.3194 43.8194 20.8333 46.8749 20.8333 49.9999C20.8333 58.1249 23.6639 65.018 29.325 70.6791C34.9861 76.3402 41.8778 79.1694 50 79.1666C58.125 79.1666 65.0181 76.3374 70.6792 70.6791C76.3403 65.0207 79.1694 58.1277 79.1667 49.9999C79.1667 46.8055 78.6986 43.6971 77.7625 40.6749C76.8264 37.6527 75.35 34.893 73.3333 32.3958C72.6389 31.493 72.2569 30.5041 72.1875 29.4291C72.1181 28.3541 72.4653 27.4333 73.2292 26.6666C74.0625 25.8333 75.0694 25.3999 76.25 25.3666C77.4305 25.3333 78.4028 25.7666 79.1667 26.6666C81.875 29.9999 83.9417 33.6458 85.3667 37.6041C86.7917 41.5624 87.5028 45.6944 87.5 49.9999C87.5 55.2083 86.5111 60.0874 84.5333 64.6374C82.5555 69.1874 79.8819 73.1458 76.5125 76.5124C73.1431 79.8791 69.1847 82.5527 64.6375 84.5332C60.0903 86.5138 55.2111 87.5027 50 87.4999Z" fill="white"/>
</g>
<defs>
<filter id="filter0_d_40_79" x="-2" y="0" width="108" height="108" filterUnits="userSpaceOnUse" color-interpolation-filters="sRGB">
<feFlood flood-opacity="0" result="BackgroundImageFix"/>
<feColorMatrix in="SourceAlpha" type="matrix" values="0 0 0 0 0 0 0 0 0 0 0 0 0 0 0 0 0 0 127 0" result="hardAlpha"/>
<feOffset dx="2" dy="4"/>
<feGaussianBlur stdDeviation="2"/>
<feComposite in2="hardAlpha" operator="out"/>
<feColorMatrix type="matrix" values="0 0 0 0 0 0 0 0 0 0 0 0 0 0 0 0 0 0 0.25 0"/>
<feBlend mode="normal" in2="BackgroundImageFix" result="effect1_dropShadow_40_79"/>
<feBlend mode="normal" in="SourceGraphic" in2="effect1_dropShadow_40_79" result="shape"/>
</filter>
</defs>
</svg>
