<svg width="15" height="15" viewBox="0 0 15 15" fill="none" xmlns="http://www.w3.org/2000/svg">
<path d="M9.5 12.5V13C9.63261 13 9.75979 12.9473 9.85355 12.8536C9.94732 12.7598 10 12.6326 10 12.5H9.5ZM5.5 12.5H5C5 12.6326 5.05268 12.7598 5.14645 12.8536C5.24021 12.9473 5.36739 13 5.5 13V12.5ZM6 15H9V14H6V15ZM3.58 6.4L3.57 6.47L4.56 6.61L4.571 6.54L3.58 6.4ZM7.5 3C6.54674 2.99984 5.62543 3.34364 4.9053 3.96823C4.18518 4.59283 3.7146 5.45629 3.58 6.4L4.571 6.54C4.67187 5.83485 5.02272 5.18976 5.56095 4.72317C6.09919 4.25658 6.78768 3.9998 7.5 4V3ZM11.42 6.4C11.2854 5.45629 10.8148 4.59283 10.0947 3.96823C9.37457 3.34364 8.45326 2.99984 7.5 3V4C8.21227 4.00001 8.90064 4.25686 9.43883 4.72341C9.97703 5.18997 10.3289 5.83494 10.43 6.54L11.42 6.4ZM11.43 6.47L11.42 6.4L10.43 6.54L10.439 6.61L11.43 6.47ZM10.64 9.459C11.27 8.645 11.588 7.585 11.43 6.47L10.44 6.611C10.4973 7.00423 10.4745 7.40497 10.3731 7.7892C10.2718 8.17343 10.0938 8.53322 9.85 8.847L10.64 9.459ZM9 10.9V12.5H10V10.901L9 10.9ZM9.5 12H5.5V13H9.5V12ZM6 12.5V10.901H5V12.5H6ZM3.57 6.47C3.49398 6.99574 3.52477 7.53141 3.6605 8.04498C3.79624 8.55855 4.03415 9.03948 4.36 9.459L5.151 8.847C4.90717 8.53322 4.72823 8.17343 4.62685 7.7892C4.52547 7.40497 4.50273 7.00323 4.56 6.61L3.57 6.47ZM6 10.9C6 10.077 5.562 9.377 5.15 8.846L4.36 9.459C4.743 9.954 5 10.426 5 10.9H6ZM9.85 8.846C9.437 9.378 9 10.077 9 10.9H10C10 10.426 10.257 9.954 10.64 9.459L9.85 8.846ZM7 0V2H8V0H7ZM0 8H2V7H0V8ZM13 8H15V7H13V8ZM3.354 3.646L1.854 2.146L1.146 2.854L2.646 4.354L3.354 3.646ZM12.354 4.354L13.854 2.854L13.146 2.146L11.646 3.646L12.354 4.354Z" fill="white"/>
</svg>
