<svg width="16" height="16" viewBox="0 0 16 16" fill="none" xmlns="http://www.w3.org/2000/svg">
<path d="M7.29553 12.0118L1.62709 6.34332C1.2353 5.95154 1.2353 5.318 1.62709 4.93038L2.56905 3.98842C2.96084 3.59663 3.59438 3.59663 3.982 3.98842L7.99992 8.00635L12.0178 3.98842C12.4096 3.59663 13.0432 3.59663 13.4308 3.98842L14.3727 4.93038C14.7645 5.32217 14.7645 5.9557 14.3727 6.34332L8.70431 12.0118C8.32085 12.4036 7.68732 12.4036 7.29553 12.0118Z" fill="#1443BD"/>
<path d="M7.29553 12.0118L1.62709 6.34332C1.2353 5.95154 1.2353 5.318 1.62709 4.93038L2.56905 3.98842C2.96084 3.59663 3.59438 3.59663 3.982 3.98842L7.99992 8.00635L12.0178 3.98842C12.4096 3.59663 13.0432 3.59663 13.4308 3.98842L14.3727 4.93038C14.7645 5.32217 14.7645 5.9557 14.3727 6.34332L8.70431 12.0118C8.32085 12.4036 7.68732 12.4036 7.29553 12.0118Z" fill="black" fill-opacity="0.5"/>
</svg>
