<svg width="50" height="50" viewBox="0 0 50 50" fill="none" xmlns="http://www.w3.org/2000/svg">
<path d="M24.9999 32.2918C23.066 32.2918 21.2114 31.5235 19.8439 30.1561C18.4765 28.7886 17.7082 26.934 17.7082 25.0001C17.7082 23.0662 18.4765 21.2116 19.8439 19.8441C21.2114 18.4766 23.066 17.7084 24.9999 17.7084C26.9338 17.7084 28.7884 18.4766 30.1559 19.8441C31.5233 21.2116 32.2916 23.0662 32.2916 25.0001C32.2916 26.934 31.5233 28.7886 30.1559 30.1561C28.7884 31.5235 26.9338 32.2918 24.9999 32.2918ZM40.4791 27.0209C40.5624 26.3543 40.6249 25.6876 40.6249 25.0001C40.6249 24.3126 40.5624 23.6251 40.4791 22.9168L44.8749 19.5209C45.2707 19.2084 45.3749 18.6459 45.1249 18.1876L40.9582 10.9793C40.7082 10.5209 40.1457 10.3334 39.6874 10.5209L34.4999 12.6043C33.4166 11.7918 32.2916 11.0834 30.9791 10.5626L30.2082 5.04175C30.1659 4.79637 30.0381 4.57389 29.8474 4.41373C29.6568 4.25358 29.4156 4.16608 29.1666 4.16675H20.8332C20.3124 4.16675 19.8749 4.54175 19.7916 5.04175L19.0207 10.5626C17.7082 11.0834 16.5832 11.7918 15.4999 12.6043L10.3124 10.5209C9.85408 10.3334 9.29158 10.5209 9.04158 10.9793L4.87491 18.1876C4.60408 18.6459 4.72908 19.2084 5.12491 19.5209L9.52074 22.9168C9.43741 23.6251 9.37491 24.3126 9.37491 25.0001C9.37491 25.6876 9.43741 26.3543 9.52074 27.0209L5.12491 30.4793C4.72908 30.7918 4.60408 31.3543 4.87491 31.8126L9.04158 39.0209C9.29158 39.4793 9.85408 39.6459 10.3124 39.4793L15.4999 37.3751C16.5832 38.2084 17.7082 38.9168 19.0207 39.4376L19.7916 44.9584C19.8749 45.4584 20.3124 45.8334 20.8332 45.8334H29.1666C29.6874 45.8334 30.1249 45.4584 30.2082 44.9584L30.9791 39.4376C32.2916 38.8959 33.4166 38.2084 34.4999 37.3751L39.6874 39.4793C40.1457 39.6459 40.7082 39.4793 40.9582 39.0209L45.1249 31.8126C45.3749 31.3543 45.2707 30.7918 44.8749 30.4793L40.4791 27.0209Z" fill="white"/>
</svg>
