<svg width="100" height="100" viewBox="0 0 100 100" fill="none" xmlns="http://www.w3.org/2000/svg">
<g filter="url(#filter0_d_47_20)">
<path d="M70.8333 25C74.0217 24.9998 77.0896 26.218 79.4094 28.4053C81.7292 30.5927 83.1255 33.5838 83.3125 36.7667L83.3333 37.5V37.8583L83.55 37.9375C84.6195 38.3608 85.5515 39.071 86.2433 39.99C86.9351 40.9089 87.3598 42.001 87.4708 43.1458L87.5 43.75V56.25C87.5002 57.5032 87.1237 58.7275 86.4193 59.764C85.715 60.8005 84.7152 61.6013 83.55 62.0625L83.3333 62.1375V62.5C83.3335 65.6884 82.1153 68.7563 79.928 71.0761C77.7407 73.3959 74.7496 74.7921 71.5667 74.9792L70.8333 75H25C21.8116 75.0002 18.7437 73.782 16.4239 71.5947C14.1041 69.4073 12.7079 66.4162 12.5208 63.2333L12.5 62.5V37.5C12.4998 34.3116 13.718 31.2437 15.9053 28.9239C18.0927 26.6041 21.0838 25.2079 24.2667 25.0208L25 25H70.8333ZM29.1667 37.5C28.0616 37.5 27.0018 37.939 26.2204 38.7204C25.439 39.5018 25 40.5616 25 41.6667V58.3333L25.0292 58.8208C25.1546 59.8754 25.678 60.8423 26.4924 61.5239C27.3068 62.2055 28.3507 62.5505 29.4109 62.4882C30.471 62.426 31.4674 61.9613 32.1965 61.189C32.9255 60.4168 33.3322 59.3953 33.3333 58.3333V41.6667L33.3042 41.1792C33.1848 40.1656 32.6975 39.2311 31.9349 38.553C31.1722 37.8748 30.1872 37.5001 29.1667 37.5ZM41.6667 37.5C40.5616 37.5 39.5018 37.939 38.7204 38.7204C37.939 39.5018 37.5 40.5616 37.5 41.6667V58.3333L37.5292 58.8208C37.6546 59.8754 38.178 60.8423 38.9924 61.5239C39.8068 62.2055 40.8507 62.5505 41.9109 62.4882C42.971 62.426 43.9674 61.9613 44.6965 61.189C45.4255 60.4168 45.8322 59.3953 45.8333 58.3333V41.6667L45.8042 41.1792C45.6848 40.1656 45.1975 39.2311 44.4349 38.553C43.6722 37.8748 42.6872 37.5001 41.6667 37.5ZM54.1667 37.5C53.0616 37.5 52.0018 37.939 51.2204 38.7204C50.439 39.5018 50 40.5616 50 41.6667V58.3333L50.0292 58.8208C50.1546 59.8754 50.678 60.8423 51.4924 61.5239C52.3068 62.2055 53.3507 62.5505 54.4109 62.4882C55.471 62.426 56.4674 61.9613 57.1965 61.189C57.9255 60.4168 58.3322 59.3953 58.3333 58.3333V41.6667L58.3042 41.1792C58.1848 40.1656 57.6975 39.2311 56.9349 38.553C56.1722 37.8748 55.1872 37.5001 54.1667 37.5ZM66.6667 37.5C65.5616 37.5 64.5018 37.939 63.7204 38.7204C62.939 39.5018 62.5 40.5616 62.5 41.6667V58.3333L62.5292 58.8208C62.6546 59.8754 63.178 60.8423 63.9924 61.5239C64.8068 62.2055 65.8507 62.5505 66.9109 62.4882C67.971 62.426 68.9674 61.9613 69.6965 61.189C70.4255 60.4168 70.8322 59.3953 70.8333 58.3333V41.6667L70.8042 41.1792C70.6848 40.1656 70.1975 39.2311 69.4349 38.553C68.6722 37.8748 67.6872 37.5001 66.6667 37.5Z" fill="white"/>
</g>
<defs>
<filter id="filter0_d_47_20" x="-2" y="0" width="108" height="108" filterUnits="userSpaceOnUse" color-interpolation-filters="sRGB">
<feFlood flood-opacity="0" result="BackgroundImageFix"/>
<feColorMatrix in="SourceAlpha" type="matrix" values="0 0 0 0 0 0 0 0 0 0 0 0 0 0 0 0 0 0 127 0" result="hardAlpha"/>
<feOffset dx="2" dy="4"/>
<feGaussianBlur stdDeviation="2"/>
<feComposite in2="hardAlpha" operator="out"/>
<feColorMatrix type="matrix" values="0 0 0 0 0 0 0 0 0 0 0 0 0 0 0 0 0 0 0.25 0"/>
<feBlend mode="normal" in2="BackgroundImageFix" result="effect1_dropShadow_47_20"/>
<feBlend mode="normal" in="SourceGraphic" in2="effect1_dropShadow_47_20" result="shape"/>
</filter>
</defs>
</svg>
