<svg width="248" height="197" viewBox="0 0 248 197" fill="none" xmlns="http://www.w3.org/2000/svg">
<path d="M162.75 21.5469C162.75 24.9328 159.262 27.7031 155 27.7031H93C88.7375 27.7031 85.25 24.9328 85.25 21.5469V12.3125C85.25 8.92656 88.7375 6.15625 93 6.15625H155C159.262 6.15625 162.75 8.92656 162.75 12.3125V21.5469Z" fill="#3E4347"/>
<path d="M186 18.4688H62C53.475 18.4688 46.5 24.0094 46.5 30.7812V178.531C46.5 185.303 53.475 190.844 62 190.844H186C194.525 190.844 201.5 185.303 201.5 178.531V30.7812C201.5 24.0094 194.525 18.4688 186 18.4688ZM186 163.141C186 164.68 184.062 166.219 182.125 166.219H65.875C63.9375 166.219 62 164.68 62 163.141V46.1719C62 44.6328 63.9375 43.0938 65.875 43.0938H182.125C184.062 43.0938 186 44.6328 186 46.1719V163.141Z" fill="#3E4347"/>
<path d="M178.25 73.875C178.25 77.2609 174.762 80.0312 170.5 80.0312H77.5C73.2375 80.0312 69.75 77.2609 69.75 73.875V61.5625C69.75 58.1766 73.2375 55.4062 77.5 55.4062H170.5C174.762 55.4062 178.25 58.1766 178.25 61.5625V73.875ZM178.25 110.812C178.25 114.198 174.762 116.969 170.5 116.969H77.5C73.2375 116.969 69.75 114.198 69.75 110.812V98.5C69.75 95.1141 73.2375 92.3438 77.5 92.3438H170.5C174.762 92.3438 178.25 95.1141 178.25 98.5V110.812ZM178.25 147.75C178.25 151.136 174.762 153.906 170.5 153.906H77.5C73.2375 153.906 69.75 151.136 69.75 147.75V135.438C69.75 132.052 73.2375 129.281 77.5 129.281H170.5C174.762 129.281 178.25 132.052 178.25 135.438V147.75Z" fill="#A8D600"/>
</svg>
