<svg width="50" height="50" viewBox="0 0 50 50" fill="none" xmlns="http://www.w3.org/2000/svg">
<path d="M25.5726 39.5834C25.9893 39.5487 26.3455 39.3834 26.6413 39.0876C26.9372 38.7917 27.0844 38.4362 27.083 38.0209C27.083 37.5348 26.9268 37.1445 26.6143 36.8501C26.3018 36.5556 25.9025 36.4251 25.4163 36.4584C23.9927 36.5626 22.4823 36.1723 20.8851 35.2876C19.2879 34.4029 18.2809 32.7966 17.8643 30.4688C17.7948 30.0869 17.6129 29.7744 17.3184 29.5313C17.024 29.2883 16.6851 29.1667 16.3018 29.1667C15.8156 29.1667 15.4163 29.3494 15.1038 29.7147C14.7913 30.0799 14.6872 30.5049 14.7913 30.9897C15.3816 34.1494 16.7705 36.4063 18.958 37.7605C21.1455 39.1147 23.3504 39.7223 25.5726 39.5834ZM24.9997 45.8334C20.2427 45.8334 16.2761 44.2015 13.0997 40.9376C9.92329 37.6737 8.3344 33.6112 8.33301 28.7501C8.33301 25.2779 9.71356 21.5022 12.4747 17.423C15.2358 13.3438 19.4108 8.92508 24.9997 4.16675C30.59 8.92369 34.7656 13.3424 37.5268 17.423C40.2879 21.5036 41.6677 25.2792 41.6663 28.7501C41.6663 33.6112 40.0781 37.6737 36.9018 40.9376C33.7254 44.2015 29.758 45.8334 24.9997 45.8334Z" fill="white"/>
</svg>
